<svg width="131" height="110" viewBox="0 0 131 110" fill="none" xmlns="http://www.w3.org/2000/svg">
<path d="M113.416 1.11597C113.416 1.11597 111.483 -0.212832 109.188 1.11597C106.892 2.44477 86.3565 25.276 72.1625 24.7928C58.0289 24.3096 27.1645 23.1016 12.3061 39.2888C-2.55231 55.476 -2.18991 74.9852 7.47409 83.8036C17.1381 92.622 25.3525 101.078 25.3525 101.078C25.3525 101.078 28.2517 103.977 30.9093 101.803C30.9093 101.803 38.8821 76.2536 45.5261 76.1328C52.1701 76.012 48.3045 86.6424 50.4789 87.488C52.6533 88.3336 63.1629 86.0384 64.6125 88.9376C66.0621 91.8368 43.2309 104.038 44.9221 107.058C46.6133 110.078 92.9401 109.353 92.9401 109.353C92.9401 109.353 98.3761 107.782 98.3761 103.917C98.3761 100.051 100.248 54.1472 94.1481 48.0468C94.1481 48.0468 92.0945 43.094 96.4433 42.3692C100.792 41.6444 131.173 29.4436 130.932 22.1956C130.932 22.1956 131.294 20.8668 129.844 18.7528C128.395 16.7596 113.416 1.11597 113.416 1.11597Z" fill="white"/>
</svg>
